# xmcd CD database file
#
# Track frame offsets:
#	150
#	31152
#	63199
#	96023
#	121825
#	151936
#	180844
#	210769
#	238443
#	266231
#
# Disc length: 3914 seconds
#
# Revision: 0
# Processed by: cddbd v1.5.1PL0 Copyright (c) Steve Scherf et al.
# Submitted via: CDex 1.51
#
DISCID=770f480a
DTITLE=Paul Landsberg - Looking In
DYEAR=1996
DGENRE=Jazz
TTITLE0=Field Trip
TTITLE1=I'm Not From Here
TTITLE2=Whenever It's Spring
TTITLE3=Blues For Wes
TTITLE4=Dolphin Dance
TTITLE5=Bossamba
TTITLE6=Looking In
TTITLE7=Tri-Monk
TTITLE8=But Beautiful
TTITLE9=Vacation Samba
EXTD=YEAR: 1996
EXTT0=
EXTT1=
EXTT2=
EXTT3=
EXTT4=
EXTT5=
EXTT6=
EXTT7=
EXTT8=
EXTT9=
PLAYORDER=
